<svg width="19" height="19" viewBox="0 0 19 19" fill="none" xmlns="http://www.w3.org/2000/svg">
<path d="M8.34583 11.9174C9.15183 12.1304 10.9128 12.5954 11.1928 11.4704C11.4798 10.3194 9.77083 9.93638 8.93783 9.74938C8.84483 9.72938 8.76283 9.70938 8.69483 9.69338L8.15283 11.8674C8.20783 11.8804 8.27283 11.8974 8.34583 11.9174ZM9.10483 8.74038C9.77683 8.92038 11.2428 9.31038 11.4978 8.28838C11.7578 7.24238 10.3338 6.92838 9.63783 6.77338C9.56998 6.75854 9.5023 6.74288 9.43483 6.72638L8.94283 8.69838C8.98983 8.70938 9.04383 8.72438 9.10483 8.74038Z" fill="#F7931A"/>
<path fill-rule="evenodd" clip-rule="evenodd" d="M7.30388 18.2874C9.59631 18.8002 11.9984 18.3965 13.9972 17.1623C15.996 15.9282 17.433 13.9614 18.0014 11.6821C18.5698 9.40282 18.2245 6.99163 17.0392 4.96347C15.854 2.9353 13.9227 1.45094 11.6579 0.827363C9.34269 0.250469 6.89316 0.616731 4.84798 1.8456C2.80279 3.07448 1.32942 5.06534 0.75188 7.38036C0.174376 9.69557 0.540235 12.1454 1.76897 14.1908C2.99771 16.2363 4.98867 17.7098 7.30388 18.2874ZM11.4689 6.03536C12.7159 6.46536 13.6289 7.10836 13.4489 8.30536C13.3189 9.18236 12.8329 9.60736 12.1879 9.75536C13.0739 10.2174 13.5249 10.9254 13.0949 12.1514C12.5629 13.6734 11.2959 13.8014 9.61188 13.4834L9.20288 15.1214L8.21588 14.8754L8.61888 13.2594C8.35585 13.1941 8.0935 13.1261 7.83188 13.0554L7.42688 14.6784L6.44088 14.4324L6.84888 12.7924L6.59288 12.7254L6.14488 12.6104L4.85988 12.2904L5.34988 11.1604C5.34988 11.1604 6.07788 11.3534 6.06788 11.3384C6.34788 11.4084 6.47188 11.2254 6.52088 11.1044L7.16688 8.51536C7.19491 8.52224 7.22291 8.52924 7.25088 8.53636L7.27088 8.54136C7.23731 8.5281 7.2029 8.51707 7.16788 8.50836L7.62788 6.66036C7.64088 6.45036 7.56788 6.18536 7.16788 6.08636C7.18388 6.07636 6.45188 5.90736 6.45188 5.90736L6.71388 4.85336L8.07588 5.19336V5.19836C8.27988 5.24836 8.49088 5.29736 8.70588 5.34636L9.11088 3.72436L10.0969 3.97036L9.70088 5.56036C9.96588 5.62036 10.2329 5.68136 10.4919 5.74636L10.8859 4.16636L11.8739 4.41336L11.4689 6.03536Z" fill="#F7931A"/>
</svg>
