<svg width="58" height="59" viewBox="0 0 58 59" fill="none" xmlns="http://www.w3.org/2000/svg">
<rect width="58" height="59" rx="29" fill="#860000"/>
<path d="M15.315 24.545H14.235L14.22 27.29C14.7 27.25 15.035 27.23 15.225 27.23C16.685 27.23 17.755 27.585 18.435 28.295C19.125 28.995 19.47 29.945 19.47 31.145C19.47 32.415 19.14 33.425 18.48 34.175C17.82 34.925 16.85 35.3 15.57 35.3C14.63 35.3 13.855 35.11 13.245 34.73C12.635 34.34 12.33 33.775 12.33 33.035C12.54 32.805 13.055 32.7 13.875 32.72C14.025 33.5 14.245 34.02 14.535 34.28C14.825 34.54 15.23 34.67 15.75 34.67C17.16 34.67 17.865 33.54 17.865 31.28C17.865 29.11 16.81 28.025 14.7 28.025C14.28 28.025 13.81 28.07 13.29 28.16V23.06H19.05C19.05 23.55 19.06 24.115 19.08 24.755C18.61 24.665 18.065 24.6 17.445 24.56L15.315 24.545ZM21.1307 29.21C21.1307 28.25 21.2207 27.375 21.4007 26.585C21.5907 25.785 21.8657 25.1 22.2257 24.53C22.5857 23.95 23.0257 23.505 23.5457 23.195C24.0657 22.875 24.6607 22.715 25.3307 22.715C26.0207 22.715 26.6257 22.88 27.1457 23.21C27.6657 23.53 28.1007 23.985 28.4507 24.575C28.8107 25.155 29.0807 25.855 29.2607 26.675C29.4407 27.485 29.5307 28.38 29.5307 29.36C29.5307 30.17 29.4357 30.935 29.2457 31.655C29.0557 32.375 28.7807 33.005 28.4207 33.545C28.0607 34.085 27.6207 34.515 27.1007 34.835C26.5807 35.145 25.9907 35.3 25.3307 35.3C24.6407 35.3 24.0357 35.14 23.5157 34.82C22.9957 34.49 22.5557 34.05 22.1957 33.5C21.8457 32.94 21.5807 32.295 21.4007 31.565C21.2207 30.825 21.1307 30.04 21.1307 29.21ZM25.3307 34.625C25.6707 34.625 25.9857 34.495 26.2757 34.235C26.5757 33.965 26.8307 33.58 27.0407 33.08C27.2607 32.58 27.4307 31.975 27.5507 31.265C27.6707 30.545 27.7307 29.735 27.7307 28.835C27.7307 27.085 27.5307 25.74 27.1307 24.8C26.7407 23.86 26.1407 23.39 25.3307 23.39C24.5207 23.39 23.9157 23.86 23.5157 24.8C23.1257 25.74 22.9307 27.085 22.9307 28.835C22.9307 30.735 23.1357 32.175 23.5457 33.155C23.9557 34.135 24.5507 34.625 25.3307 34.625ZM31.1795 29.21C31.1795 28.25 31.2695 27.375 31.4495 26.585C31.6395 25.785 31.9145 25.1 32.2745 24.53C32.6345 23.95 33.0745 23.505 33.5945 23.195C34.1145 22.875 34.7095 22.715 35.3795 22.715C36.0695 22.715 36.6745 22.88 37.1945 23.21C37.7145 23.53 38.1495 23.985 38.4995 24.575C38.8595 25.155 39.1295 25.855 39.3095 26.675C39.4895 27.485 39.5795 28.38 39.5795 29.36C39.5795 30.17 39.4845 30.935 39.2945 31.655C39.1045 32.375 38.8295 33.005 38.4695 33.545C38.1095 34.085 37.6695 34.515 37.1495 34.835C36.6295 35.145 36.0395 35.3 35.3795 35.3C34.6895 35.3 34.0845 35.14 33.5645 34.82C33.0445 34.49 32.6045 34.05 32.2445 33.5C31.8945 32.94 31.6295 32.295 31.4495 31.565C31.2695 30.825 31.1795 30.04 31.1795 29.21ZM35.3795 34.625C35.7195 34.625 36.0345 34.495 36.3245 34.235C36.6245 33.965 36.8795 33.58 37.0895 33.08C37.3095 32.58 37.4795 31.975 37.5995 31.265C37.7195 30.545 37.7795 29.735 37.7795 28.835C37.7795 27.085 37.5795 25.74 37.1795 24.8C36.7895 23.86 36.1895 23.39 35.3795 23.39C34.5695 23.39 33.9645 23.86 33.5645 24.8C33.1745 25.74 32.9795 27.085 32.9795 28.835C32.9795 30.735 33.1845 32.175 33.5945 33.155C34.0045 34.135 34.5995 34.625 35.3795 34.625Z" fill="white"/>
<path d="M39.68 17.569V21.692L40.247 21.762C40.2657 21.832 40.2657 21.9183 40.247 22.021C39.953 22.007 39.6333 22 39.288 22C39.036 22 38.714 22.0047 38.322 22.014C38.294 21.93 38.294 21.846 38.322 21.762L38.903 21.678C38.9217 21.5007 38.931 21.2277 38.931 20.859V16.736L38.364 16.666C38.3453 16.596 38.3453 16.5097 38.364 16.407C38.6207 16.4257 38.9403 16.435 39.323 16.435C39.6637 16.435 39.9857 16.428 40.289 16.414C40.317 16.498 40.317 16.582 40.289 16.666L39.708 16.75C39.6893 16.9273 39.68 17.2003 39.68 17.569ZM40.9822 16.407C41.1735 16.407 41.4768 16.3977 41.8922 16.379C42.3122 16.3603 42.6925 16.351 43.0332 16.351C43.7565 16.351 44.2722 16.4933 44.5802 16.778C44.8882 17.058 45.0422 17.45 45.0422 17.954C45.0422 18.402 44.8415 18.7777 44.4402 19.081C44.0435 19.3843 43.5698 19.536 43.0192 19.536C42.7345 19.536 42.4942 19.522 42.2982 19.494V21.692L42.9352 21.762C42.9538 21.832 42.9538 21.9183 42.9352 22.021C42.6412 22.007 42.3098 22 41.9412 22C41.6658 22 41.3322 22.0047 40.9402 22.014C40.9122 21.93 40.9122 21.846 40.9402 21.762L41.5212 21.678C41.5398 21.5007 41.5492 21.2277 41.5492 20.859V16.736L40.9822 16.666C40.9635 16.596 40.9635 16.5097 40.9822 16.407ZM42.2982 17.569V19.207C42.4428 19.2257 42.6528 19.235 42.9282 19.235C43.1708 19.235 43.3785 19.1953 43.5512 19.116C43.7285 19.032 43.8615 18.9223 43.9502 18.787C44.0388 18.647 44.1018 18.507 44.1392 18.367C44.1765 18.227 44.1952 18.0777 44.1952 17.919C44.1952 17.513 44.0925 17.2003 43.8872 16.981C43.6818 16.757 43.3388 16.645 42.8582 16.645C42.6855 16.645 42.5128 16.6613 42.3402 16.694C42.3122 16.96 42.2982 17.2517 42.2982 17.569ZM50.2731 21.699L50.8541 21.755C50.8727 21.8343 50.8751 21.9207 50.8611 22.014C50.1611 22 49.6827 21.993 49.4261 21.993C49.0341 21.993 48.7331 22.0023 48.5231 22.021C48.4951 21.9417 48.4927 21.8577 48.5161 21.769L49.2301 21.671C49.1507 21.4983 48.9921 21.2463 48.7541 20.915L47.8231 19.571L46.2271 21.692L46.7941 21.762C46.8127 21.832 46.8127 21.9183 46.7941 22.021C46.5001 22.007 46.2341 22 45.9961 22C45.8467 22 45.5761 22.0047 45.1841 22.014C45.1561 21.93 45.1561 21.846 45.1841 21.762L45.6951 21.678C45.9377 21.4447 46.1267 21.237 46.2621 21.055L47.6061 19.249L45.8771 16.736L45.3101 16.666C45.2914 16.596 45.2914 16.5097 45.3101 16.407C45.5667 16.4257 45.9424 16.435 46.4371 16.435C46.8944 16.435 47.2724 16.428 47.5711 16.414C47.5991 16.498 47.5991 16.582 47.5711 16.666L46.8781 16.799C46.9621 16.953 47.0531 17.0953 47.1511 17.226L48.0891 18.577L49.4681 16.736L48.9011 16.666C48.8824 16.596 48.8824 16.5097 48.9011 16.407C49.1577 16.4257 49.4261 16.435 49.7061 16.435C49.9441 16.435 50.2147 16.428 50.5181 16.414C50.5461 16.498 50.5461 16.582 50.5181 16.666L50.0771 16.75C49.8437 16.9133 49.6314 17.121 49.4401 17.373L48.2991 18.878L50.2731 21.699Z" fill="white"/>
</svg>
